# xmcd
#
# Track frame offsets:
#	150
#	24489
#	64359
#	88419
#	112094
#	139959
#	172099
#	204379
#	213324
#	263149
#	300789
#
# Disc length: 4356 seconds
#
# Revision: 1
# Processed by: cddbd v1.5.1PL2 Copyright (c) Steve Scherf et al.
# Submitted via: EasyCDDAExtractor 9.0.0.1
#
DISCID=a211020b
DTITLE=Saxon - Astoria London 26-01-03 Disc 2
DYEAR=2003
DGENRE=Hard Rock
TTITLE0=Drum Solo
TTITLE1=The Eagle Has Landed
TTITLE2=Requiem (We Will Remember)
TTITLE3=Strong Arm Of The Law
TTITLE4=Princess Of The Night
TTITLE5=Solid Ball Of Rock
TTITLE6=Crusader
TTITLE7=Guitar Solo
TTITLE8=Wheels of Steel
TTITLE9=Denim and Leather
TTITLE10=747 (Strangers In The Night)
EXTD=
EXTT0=
EXTT1=
EXTT2=
EXTT3=
EXTT4=
EXTT5=
EXTT6=
EXTT7=
EXTT8=
EXTT9=
EXTT10=
PLAYORDER=
